<?xml version="1.0" encoding="UTF-8" standalone="no"?> <!-- Created with Vectornator for iOS (http://vectornator.io/) --><!DOCTYPE svg PUBLIC "-//W3C//DTD SVG 1.1//EN" "http://www.w3.org/Graphics/SVG/1.1/DTD/svg11.dtd">
<svg style="fill-rule:evenodd;clip-rule:evenodd;stroke-linecap:round;stroke-linejoin:round;" xmlns:vectornator="http://vectornator.io" xmlns:xlink="http://www.w3.org/1999/xlink" xmlns="http://www.w3.org/2000/svg" xml:space="preserve" version="1.1" viewBox="0 0 256 256">
<metadata>
<vectornator:setting key="DynamicGuides" value="1"/>
<vectornator:setting key="Units" value="Points"/>
<vectornator:setting key="GuidesVisible" value="1"/>
<vectornator:setting key="RulersVisible" value="1"/>
<vectornator:setting key="SnapToGuides" value="1"/>
<vectornator:setting key="GridSpacing" value="36"/>
</metadata>
<defs>
<linearGradient y1="0.659988" id="LinearGradient" x1="127.844" y2="255.34" x2="127.844" gradientUnits="userSpaceOnUse" gradientTransform="matrix(1 0 0 1 0 0)">
<stop stop-color="#ffffff" offset="0"/>
<stop stop-color="#ffffff" offset="1"/>
</linearGradient>
</defs>
<g id="Untitled" vectornator:layerName="Untitled">
<path d="M181.534+254.252C185.566+255.823+190.164+255.722+194.234+253.764L246.94+228.403C252.478+225.738+256+220.132+256+213.983L256+42.0181C256+35.8689+252.478+30.2638+246.94+27.5988L194.234+2.23681C188.893-0.333132+182.642+0.296344+177.955+3.70418C177.285+4.191+176.647+4.73454+176.049+5.33354L75.149+97.3862L31.1992+64.0247C27.1079+60.9191+21.3853+61.1735+17.5855+64.63L3.48936+77.4525C-1.15853+81.6805-1.16386+88.9926+3.47785+93.2274L41.5926+128L3.47785+162.773C-1.16386+167.008-1.15853+174.32+3.48936+178.548L17.5855+191.37C21.3853+194.827+27.1079+195.081+31.1992+191.976L75.149+158.614L176.049+250.667C177.645+252.264+179.519+253.467+181.534+254.252ZM192.039+69.8853L115.479+128L192.039+186.115L192.039+69.8853Z" fill-rule="evenodd" fill="#ffffff" opacity="1"/>
<g opacity="1">
<path d="M246.94+27.6383L194.193+2.24138C188.088-0.698302+180.791+0.541721+175.999+5.33332L3.32371+162.773C-1.32082+167.008-1.31548+174.32+3.33523+178.548L17.4399+191.37C21.2421+194.827+26.9682+195.081+31.0619+191.976L239.003+34.2269C245.979+28.9347+255.999+33.9103+255.999+42.6667L255.999+42.0543C255.999+35.9078+252.478+30.3047+246.94+27.6383Z" opacity="1" fill="#0065a9"/>
<path d="M246.94+228.362L194.193+253.759C188.088+256.698+180.791+255.458+175.999+250.667L3.32371+93.2272C-1.32082+88.9925-1.31548+81.6802+3.33523+77.4523L17.4399+64.6298C21.2421+61.1733+26.9682+60.9188+31.0619+64.0245L239.003+221.773C245.979+227.065+255.999+222.09+255.999+213.333L255.999+213.946C255.999+220.092+252.478+225.695+246.94+228.362Z" opacity="1" fill="#007acc"/>
<path d="M194.196+253.763C188.089+256.7+180.792+255.459+176+250.667C181.904+256.571+192+252.389+192+244.039L192+11.9606C192+3.61057+181.904-0.571175+176+5.33321C180.792+0.541166+188.089-0.700607+194.196+2.23648L246.934+27.5985C252.476+30.2635+256+35.8686+256+42.0178L256+213.983C256+220.132+252.476+225.737+246.934+228.402L194.196+253.763Z" opacity="1" fill="#1f9cf0"/>
<path d="M181.378+254.252C185.41+255.822+190.008+255.722+194.077+253.764L246.783+228.402C252.322+225.737+255.844+220.132+255.844+213.983L255.844+42.0179C255.844+35.8687+252.322+30.2636+246.784+27.5986L194.077+2.23665C188.737-0.333299+182.486+0.296177+177.798+3.70401C177.129+4.19083+176.491+4.73437+175.892+5.33337L74.9927+97.386L31.0429+64.0245C26.9517+60.9189+21.229+61.1734+17.4292+64.6298L3.33311+77.4523C-1.31478+81.6803-1.32011+88.9925+3.3216+93.2273L41.4364+128L3.3216+162.773C-1.32011+167.008-1.31478+174.32+3.33311+178.548L17.4292+191.37C21.229+194.827+26.9517+195.081+31.0429+191.976L74.9927+158.614L175.892+250.667C177.488+252.264+179.363+253.467+181.378+254.252ZM191.883+69.8851L115.323+128L191.883+186.115L191.883+69.8851Z" fill-rule="evenodd" fill="url(#LinearGradient)" opacity="0.0625"/>
</g>
</g>
</svg>
