<svg id="Layer_1" data-name="Layer 1" xmlns="http://www.w3.org/2000/svg" xmlns:xlink="http://www.w3.org/1999/xlink" viewBox="0 0 27.13 28"><defs><style>.cls-1,.cls-3{fill:none;stroke-width:2px;}.cls-1{stroke:url(#linear-gradient);}.cls-2{fill:url(#linear-gradient-2);}.cls-3{stroke:url(#linear-gradient-3);}</style><linearGradient id="linear-gradient" x1="8.25" y1="4.25" x2="11.75" y2="0.75" gradientUnits="userSpaceOnUse"><stop offset="0" stop-color="#bb8eff"/><stop offset="1" stop-color="#408bfc"/></linearGradient><linearGradient id="linear-gradient-2" x1="5.74" y1="3.74" x2="10.21" y2="-0.74" xlink:href="#linear-gradient"/><linearGradient id="linear-gradient-3" x1="0.97" y1="16" x2="28.1" y2="16" xlink:href="#linear-gradient"/></defs><title>razeeFlag</title><path class="cls-1" d="M10,0V5" transform="translate(-0.97)"/><path class="cls-2" d="M10.94,0H5L6.49,1.5,5,3h5.94Z" transform="translate(-0.97)"/><path class="cls-3" d="M17,8H15a25.65,25.65,0,0,1,.88,3M17,8h5c2.67,4,7.2,13.4,4,19H12a10.06,10.06,0,0,0,1.72-2M17,8a4.32,4.32,0,0,0-1.5-3H8a7.52,7.52,0,0,1,1,6m0,0H3A12.19,12.19,0,0,1,3,25H13.72M9,11h6.88M13.72,25c1.89-2.79,3.6-7.62,2.16-14" transform="translate(-0.97)"/></svg>