<svg xmlns="http://www.w3.org/2000/svg" xmlns:xlink="http://www.w3.org/1999/xlink" viewBox="0 0 2091 615"><defs><style>.a{fill:#07242d;}.b{fill:#08b1d5;}.c{fill:#ffc900;}.d{opacity:0.89;fill:url(#a);}.e{opacity:0.82;fill:url(#b);}.f{fill:url(#c);}.g{fill:url(#d);}.h{fill:#ff445f;}.i{fill:#1904da;}</style><linearGradient id="a" x1="253.0823" y1="110.87451" x2="339.89395" y2="24.06286" gradientUnits="userSpaceOnUse"><stop offset="0" stop-color="#ff445f" stop-opacity="0"/><stop offset="1" stop-color="#ff445f" stop-opacity="0.3"/></linearGradient><linearGradient id="b" x1="20.35069" y1="343.42143" x2="112.92843" y2="251.26865" gradientUnits="userSpaceOnUse"><stop offset="0" stop-color="#1904da" stop-opacity="0.2"/><stop offset="1" stop-color="#1904da" stop-opacity="0"/></linearGradient><linearGradient id="c" x1="47.71129" y1="316.38684" x2="47.71129" y2="225.97434" gradientUnits="userSpaceOnUse"><stop offset="0" stop-color="#1904da" stop-opacity="0.3"/><stop offset="0.00842" stop-color="#1904da" stop-opacity="0.27834"/><stop offset="0.06395" stop-color="#1904da" stop-opacity="0.15659"/><stop offset="0.12067" stop-color="#1904da" stop-opacity="0.06932"/><stop offset="0.17882" stop-color="#1904da" stop-opacity="0.01716"/><stop offset="0.24057" stop-color="#1904da" stop-opacity="0"/></linearGradient><linearGradient id="d" x1="-71.16704" y1="352.00754" x2="-71.16704" y2="261.53561" gradientTransform="matrix(0, 1, 1, 0, -35.67293, 118.78959)" gradientUnits="userSpaceOnUse"><stop offset="0" stop-color="#ff445f" stop-opacity="0.4"/><stop offset="0.008" stop-color="#ff445f" stop-opacity="0.37252"/><stop offset="0.05232" stop-color="#ff445f" stop-opacity="0.23878"/><stop offset="0.09754" stop-color="#ff445f" stop-opacity="0.13396"/><stop offset="0.14349" stop-color="#ff445f" stop-opacity="0.05928"/><stop offset="0.19058" stop-color="#ff445f" stop-opacity="0.01467"/><stop offset="0.24057" stop-color="#ff445f" stop-opacity="0"/></linearGradient></defs><path class="a" d="M1681.77628,203.63948c0,96.73823-78.39283,175.03841-175.13109,175.03841s-175.05985-78.54443-175.05985-175.28265V28.24055h62.37381V203.26009h0c-.00042.129,0-.129,0,0,0,62.20321,50.48282,112.88662,112.686,112.88662s112.63136-50.68341,112.63136-112.88662c0-.129.00044.129,0,0h0V28.24055h62.49975V203.63948ZM1214.9178,612.62593h64.02744V214.86724c.20766-3.50175,0-7.03025,0-10.58415,0-97.22562-78.60623-176.04254-175.83183-176.04254a176.04254,176.04254,0,1,0,0,352.08508h8.90159l64.76107-64.47519h-73.66268a111.56736,111.56736,0,0,1,0-223.13473c61.61694,0,111.80441,49.95041,111.80441,111.56737ZM873.82072,382.12165H696.42192q-5.86377-.00439-11.66357-.3938A177.41707,177.41707,0,0,1,519.34469,204.91544c4.08273-199.586,274.26138-244.29868,343.98187-60.1683a177.62647,177.62647,0,0,1,10.49416,60.1683C873.82,204.9003,873.82072,382.12165,873.82072,382.12165ZM696.56865,317.42951H808.25737s.00073-81.44975,0-112.51407c.43574-100.16739-121.56824-149.44673-190.89069-79.21017l-.0205-.02039a111.24445,111.24445,0,0,0-33.01667,79.23056C584.32951,266.90348,634.58067,317.42951,696.56865,317.42951Zm1391.93456,64.69214h-177.3988q-5.86377-.00439-11.66358-.3938a177.41707,177.41707,0,0,1-165.41365-176.81241c4.08273-199.586,274.26138-244.29868,343.98187-60.1683a177.62647,177.62647,0,0,1,10.49416,60.1683C2088.50248,204.9003,2088.50321,382.12165,2088.50321,382.12165Zm-177.25207-64.69214h111.68872s.00073-81.44975,0-112.51407c.43574-100.16739-121.56824-149.44673-190.89069-79.21017l-.02051-.02039a111.24449,111.24449,0,0,0-33.01666,79.23056C1799.012,266.90348,1849.26316,317.42951,1911.25114,317.42951Z"/><path class="b" d="M92.925,316.38684l-.007-208.65328c.00021-12.92548-13.84945-12.92548-13.84945-12.92548-5.53946,0-7.84758,2.30813-10.15571,4.61625L9.13124,159.20578a22.79322,22.79322,0,0,0-6.63335,16.15716v141.0239H92.925Z"/><path class="c" d="M316.33931,2.37672l-141.01914.00014A22.85029,22.85029,0,0,0,159.1628,9.06934L99.38147,68.85081c-2.30812,2.30813-4.61625,4.61625-4.61625,10.15592,0,0,0,13.85419,12.92548,13.85419H316.33931Z"/><polygon class="d" points="225.867 92.861 316.339 92.861 316.339 2.374 225.867 92.861"/><polyline class="e" points="2.498 316.387 92.925 225.974 92.925 316.387 2.498 316.387"/><polyline class="f" points="2.498 316.387 92.925 225.974 92.925 316.387 2.498 316.387"/><polyline class="g" points="316.339 2.374 225.867 92.861 316.339 92.861 316.339 2.374"/><path class="h" d="M404.50824,9.97592a16.05751,16.05751,0,0,0-13.508-7.6l-74.66187,0c-.00216,58.59228-.00286,237.81172,0,299.12751,0,12.92621,13.17,12.92621,13.86243,12.92621,5.541,0,7.85058-2.30954,10.16007-4.61908l59.779-59.779a22.80351,22.80351,0,0,0,6.65107-16.15756V17.10123A14.0012,14.0012,0,0,0,404.50824,9.97592Z"/><path class="i" d="M10.14952,404.69935A16.09222,16.09222,0,0,1,2.49838,391.199V316.38684H301.58819c12.9262-.013,12.93944,13.00659,12.94013,13.699.00557,5.541-2.30164,7.8529-4.60886,10.1647l-59.71889,59.839a22.80348,22.80348,0,0,1-16.15086,6.66731l-216.77258.21794A14.00123,14.00123,0,0,1,10.14952,404.69935Z"/></svg>